g mountain_A_grass_LOD2
v -11.56201 0.0002806237 -2.688767
v -10.14016 0.0001663062 -19.54872
v 0.906641 4.457653 -13.93103
v 18.56472 -9.645824E-06 8.483674
v 1.191259 10.04755 4.351648
v 0.906641 4.457653 -13.93103
v 13.33711 0.0004808235 -15.3214
v -11.56201 0.0002806237 -2.688767
v 1.191259 10.04755 4.351648
v -9.232082 4.08721 10.08196
v -25.24856 5.774964E-05 13.99552
v -9.232082 4.08721 10.08196
v -19.45934 1.541981E-05 21.57432
v 18.56472 -9.645824E-06 8.483674
v 13.25815 -6.557466E-05 25.31676
v 1.191259 10.04755 4.351648
v 0.906641 4.457653 -13.93103
v 1.191259 10.04755 4.351648
v -11.56201 0.0002806237 -2.688767
v 7.847464 0.0006383986 -23.74852
v 0.906641 4.457653 -13.93103
v -1.106337 0.0003244891 -26.26184
v 0.906641 4.457653 -13.93103
v 7.847464 0.0006383986 -23.74852
v 13.33711 0.0004808235 -15.3214
v -9.232082 4.08721 10.08196
v -25.24856 5.774964E-05 13.99552
v -23.82557 0.0001786876 2.160821
v 0.8765354 0.0001344992 27.64593
v -9.232082 4.08721 10.08196
v 1.191259 10.04755 4.351648
v -19.45934 1.541981E-05 21.57432
v -9.232082 4.08721 10.08196
v 0.8765354 0.0001344992 27.64593
v -1.106337 0.0003244891 -26.26184
v 0.906641 4.457653 -13.93103
v -10.14016 0.0001663062 -19.54872
v -9.232082 4.08721 10.08196
v -23.82557 0.0001786876 2.160821
v -11.56201 0.0002806237 -2.688767
v 0.8765354 0.0001344992 27.64593
v 1.191259 10.04755 4.351648
v 13.25815 -6.557466E-05 25.31676
vt 0.4254709 0.3788239
vt 0.6273672 0.3131596
vt 0.5323095 0.1836122
vt 0.2167465 0.01396634
vt 0.3089709 0.2308107
vt 0.5323095 0.1836122
vt 0.524138 0.01147441
vt 0.4254709 0.3788239
vt 0.3089709 0.2308107
vt 0.2643256 0.3837812
vt 0.2552954 0.6052063
vt 0.2643256 0.3837812
vt 0.1490354 0.5502287
vt 0.2167465 0.01396634
vt 0.01661002 0.1212366
vt 0.3089709 0.2308107
vt 0.5323095 0.1836122
vt 0.3089709 0.2308107
vt 0.4254709 0.3788239
vt 0.6265754 0.05536751
vt 0.5323095 0.1836122
vt 0.6873327 0.1757146
vt 0.5323095 0.1836122
vt 0.6265754 0.05536751
vt 0.524138 0.01147441
vt 0.2643256 0.3837812
vt 0.2552954 0.6052063
vt 0.3672445 0.5369302
vt 0.02604524 0.2998503
vt 0.2643256 0.3837812
vt 0.3089709 0.2308107
vt 0.1490354 0.5502287
vt 0.2643256 0.3837812
vt 0.02604524 0.2998503
vt 0.6873327 0.1757146
vt 0.5323095 0.1836122
vt 0.6273672 0.3131596
vt 0.2643256 0.3837812
vt 0.3672445 0.5369302
vt 0.4254709 0.3788239
vt 0.02604524 0.2998503
vt 0.3089709 0.2308107
vt 0.01661002 0.1212366
vn -0.3606775 0.9321942 -0.03042329
vn -0.3606775 0.9321942 -0.03042329
vn -0.3606775 0.9321942 -0.03042329
vn 0.4438171 0.8788942 -0.1748469
vn 0.4438171 0.8788942 -0.1748469
vn 0.4438171 0.8788942 -0.1748469
vn 0.4438171 0.8788942 -0.1748469
vn -0.5548372 0.8164194 -0.160047
vn -0.5548372 0.8164194 -0.160047
vn -0.5548372 0.8164194 -0.160047
vn -0.2075788 0.9652808 0.1585687
vn -0.2075788 0.9652808 0.1585687
vn -0.2075788 0.9652808 0.1585687
vn 0.4685805 0.8709827 0.1477211
vn 0.4685805 0.8709827 0.1477211
vn 0.4685805 0.8709827 0.1477211
vn -0.5136848 0.8226888 -0.2435388
vn -0.5136848 0.8226888 -0.2435388
vn -0.5136848 0.8226888 -0.2435388
vn 0.09892096 0.9305589 -0.3525261
vn 0.09892096 0.9305589 -0.3525261
vn 0.09892096 0.9305589 -0.3525261
vn 0.3104349 0.9288391 -0.2022081
vn 0.3104349 0.9288391 -0.2022081
vn 0.3104349 0.9288391 -0.2022081
vn -0.2541466 0.9666831 -0.03054841
vn -0.2541466 0.9666831 -0.03054841
vn -0.2541466 0.9666831 -0.03054841
vn -0.2962237 0.8784646 0.3749019
vn -0.2962237 0.8784646 0.3749019
vn -0.2962237 0.8784646 0.3749019
vn -0.08050773 0.9595931 0.2696288
vn -0.08050773 0.9595931 0.2696288
vn -0.08050773 0.9595931 0.2696288
vn -0.2223118 0.92795 -0.2991425
vn -0.2223118 0.92795 -0.2991425
vn -0.2223118 0.92795 -0.2991425
vn -0.1123959 0.9521527 -0.284205
vn -0.1123959 0.9521527 -0.284205
vn -0.1123959 0.9521527 -0.284205
vn 0.07447124 0.9153109 0.395803
vn 0.07447124 0.9153109 0.395803
vn 0.07447124 0.9153109 0.395803
g mountain_A_grass_LOD2_0
f 3/3/3 2/2/2 1/1/1
f 6/6/6 5/5/5 4/4/4
f 7/7/7 6/6/6 4/4/4
f 10/10/10 9/9/9 8/8/8
f 13/13/13 12/12/12 11/11/11
f 16/16/16 15/15/15 14/14/14
f 19/19/19 18/18/18 17/17/17
f 22/22/22 21/21/21 20/20/20
f 25/25/25 24/24/24 23/23/23
f 28/28/28 27/27/27 26/26/26
f 31/31/31 30/30/30 29/29/29
f 34/34/34 33/33/33 32/32/32
f 37/37/37 36/36/36 35/35/35
f 40/40/40 39/39/39 38/38/38
f 43/43/43 42/42/42 41/41/41
