g mountain_B_grass_LOD15
v -6.282571 0.4482094 -7.780525
v -2.311592 5.420668 -1.147629
v -8.348432 0.44821 -4.186615
v -5.256901 2.167321 0.9684372
v -7.434097 0.4482113 4.000374
v 4.958391 1.488575 -1.617065
v 1.887142 2.91244 -4.205856
v 7.581035 0.4482095 -7.027992
v 4.913578 0.4482091 -9.760498
v -2.006766 0.448209 -10.14368
v -2.536797 3.46927 -4.203293
v -6.282571 0.4482094 -7.780525
v -0.454792 7.311113 -1.634468
v 8.652064 0.4482104 -1.960701
v 4.486223 1.804899 0.9332657
v 1.04611 5.195306 -0.7928772
v 8.82675 0.3436427 3.195114
v 7.702963 0.3436432 5.811302
v 2.641354 2.736252 4.789505
v 4.14613 0.4482122 9.528648
v -2.261821 0.4482124 10.53915
v -0.3611832 8.043625 0.4059143
v -1.031923 2.275523 4.995087
v -4.975517 0.4482122 9.563286
v -6.333086 0.4482119 7.346611
v -7.434097 0.4482113 4.000374
v -0.3611832 8.043625 0.4059143
v -0.454792 7.311113 -1.634468
v 1.04611 5.195306 -0.7928772
v -0.3611832 8.043625 0.4059143
v -2.311592 5.420668 -1.147629
v -0.3611832 8.043625 0.4059143
v -5.256901 2.167321 0.9684372
v -0.3611832 8.043625 0.4059143
v 2.641354 2.736252 4.789505
v -1.031923 2.275523 4.995087
v -2.311592 5.420668 -1.147629
v -6.282571 0.4482094 -7.780525
v -2.536797 3.46927 -4.203293
v 1.887142 2.91244 -4.205856
v 1.04611 5.195306 -0.7928772
v -0.454792 7.311113 -1.634468
v 4.958391 1.488575 -1.617065
v 1.04611 5.195306 -0.7928772
v 1.887142 2.91244 -4.205856
v -2.536797 3.46927 -4.203293
v -0.454792 7.311113 -1.634468
v -2.311592 5.420668 -1.147629
v -0.454792 7.311113 -1.634468
v -0.3611832 8.043625 0.4059143
v -2.311592 5.420668 -1.147629
v 4.486223 1.804899 0.9332657
v -0.3611832 8.043625 0.4059143
v 1.04611 5.195306 -0.7928772
v -5.256901 2.167321 0.9684372
v -0.3611832 8.043625 0.4059143
v -7.434097 0.4482113 4.000374
vt 0.8948227 0.5766376
vt 0.8285356 0.7148852
vt 0.9465351 0.6428084
vt 0.8937716 0.7488713
vt 0.9414576 0.803027
vt 0.6678061 0.7237381
vt 0.7354634 0.6656421
vt 0.6057469 0.6204205
vt 0.6670124 0.563859
vt 0.8055749 0.5404518
vt 0.8278269 0.6561627
vt 0.8948227 0.5766376
vt 0.7889091 0.7096056
vt 0.5884701 0.724754
vt 0.6807822 0.7744169
vt 0.759065 0.728878
vt 0.6089596 0.8259512
vt 0.6336306 0.8716778
vt 0.7435625 0.8349292
vt 0.7107244 0.9328988
vt 0.8414708 0.9393431
vt 0.7905678 0.7486947
vt 0.8153133 0.8355377
vt 0.8974056 0.9136776
vt 0.9281158 0.870552
vt 0.9414576 0.803027
vt 0.7905678 0.7486947
vt 0.7889091 0.7096056
vt 0.759065 0.728878
vt 0.7905678 0.7486947
vt 0.8285356 0.7148852
vt 0.7905678 0.7486947
vt 0.8937716 0.7488713
vt 0.7905678 0.7486947
vt 0.7435625 0.8349292
vt 0.8153133 0.8355377
vt 0.8285356 0.7148852
vt 0.8948227 0.5766376
vt 0.8278269 0.6561627
vt 0.7354634 0.6656421
vt 0.759065 0.728878
vt 0.7889091 0.7096056
vt 0.6678061 0.7237381
vt 0.759065 0.728878
vt 0.7354634 0.6656421
vt 0.8278269 0.6561627
vt 0.7889091 0.7096056
vt 0.8285356 0.7148852
vt 0.7889091 0.7096056
vt 0.7905678 0.7486947
vt 0.8285356 0.7148852
vt 0.6807822 0.7744169
vt 0.7905678 0.7486947
vt 0.759065 0.728878
vt 0.8937716 0.7488713
vt 0.7905678 0.7486947
vt 0.9414576 0.803027
vn -0.3792573 0.8409318 -0.3860021
vn -0.635621 0.7720011 -0.0005269249
vn -0.5752026 0.8086904 -0.1231336
vn -0.6200759 0.7763669 0.1129616
vn -0.3979047 0.8757359 0.2734202
vn 0.4027365 0.9150776 -0.02088601
vn 0.1807795 0.8882028 -0.4223916
vn 0.3064008 0.9416571 -0.1392857
vn 0.1542881 0.9315659 -0.3292114
vn -0.06603608 0.8973619 -0.4363266
vn 0.01370461 0.7858987 -0.6182033
vn -0.3792573 0.8409318 -0.3860021
vn 0.06616838 0.529592 -0.8456678
vn 0.2827542 0.9585055 -0.0362948
vn 0.5211894 0.8517904 0.05305512
vn 0.6915374 0.7213104 0.03856519
vn 0.2843489 0.9560165 0.0719594
vn 0.3458723 0.9252768 0.1556771
vn 0.3818267 0.8916807 0.2431336
vn 0.1947792 0.9060802 0.3756056
vn -0.05624796 0.9430727 0.3277958
vn 0.2533914 0.7560803 0.6034364
vn -0.2110645 0.876111 0.4334528
vn -0.184015 0.9570646 0.2239775
vn -0.2728616 0.9537639 0.1260202
vn -0.3979047 0.8757359 0.2734202
vn 0.2533914 0.7560803 0.6034364
vn 0.8348106 0.5048654 -0.2195497
vn 0.8348107 0.5048654 -0.2195497
vn 0.8348107 0.5048654 -0.2195497
vn -0.7691314 0.6312038 -0.1000935
vn -0.7691314 0.6312038 -0.1000935
vn -0.7691314 0.6312038 -0.1000935
vn -0.03469376 0.6246917 0.7801004
vn -0.03469376 0.6246917 0.7801004
vn -0.03469376 0.6246917 0.7801004
vn -0.1767121 0.8353931 -0.5204721
vn -0.1767121 0.8353931 -0.5204721
vn -0.1767121 0.8353931 -0.5204721
vn 0.833582 0.5315949 -0.1501592
vn 0.833582 0.531595 -0.1501593
vn 0.833582 0.5315949 -0.1501592
vn 0.6116254 0.7189564 -0.3301761
vn 0.6116253 0.7189564 -0.3301761
vn 0.6116254 0.7189564 -0.3301761
vn -0.7133396 0.6133167 -0.3391007
vn -0.7133396 0.6133167 -0.3391006
vn -0.7133396 0.6133167 -0.3391007
vn -0.724192 0.6589381 -0.2033388
vn -0.7241919 0.6589381 -0.2033388
vn -0.724192 0.6589381 -0.2033388
vn 0.7360595 0.5370809 -0.4120199
vn 0.7360596 0.5370809 -0.4120199
vn 0.7360595 0.5370809 -0.41202
vn -0.76232 0.6161515 -0.1980544
vn -0.76232 0.6161515 -0.1980544
vn -0.76232 0.6161515 -0.1980544
g mountain_B_grass_LOD15_0
f 3/3/3 2/2/2 1/1/1
f 4/4/4 2/2/2 3/3/3
f 4/4/4 3/3/3 5/5/5
f 8/8/8 7/7/7 6/6/6
f 9/9/9 7/7/7 8/8/8
f 9/9/9 10/10/10 7/7/7
f 11/11/11 7/7/7 10/10/10
f 12/12/12 11/11/11 10/10/10
f 11/11/11 13/13/13 7/7/7
f 14/14/14 8/8/8 6/6/6
f 6/6/6 15/15/15 14/14/14
f 16/16/16 15/15/15 6/6/6
f 17/17/17 14/14/14 15/15/15
f 18/18/18 17/17/17 15/15/15
f 15/15/15 19/19/19 18/18/18
f 18/18/18 19/19/19 20/20/20
f 21/21/21 20/20/20 19/19/19
f 22/22/22 19/19/19 15/15/15
f 23/23/23 21/21/21 19/19/19
f 23/23/23 24/24/24 21/21/21
f 25/25/25 24/24/24 23/23/23
f 26/26/26 25/25/25 23/23/23
f 26/26/26 23/23/23 27/27/27
f 30/30/30 29/29/29 28/28/28
f 33/33/33 32/32/32 31/31/31
f 36/36/36 35/35/35 34/34/34
f 39/39/39 38/38/38 37/37/37
f 42/42/42 41/41/41 40/40/40
f 45/45/45 44/44/44 43/43/43
f 48/48/48 47/47/47 46/46/46
f 51/51/51 50/50/50 49/49/49
f 54/54/54 53/53/53 52/52/52
f 57/57/57 56/56/56 55/55/55
