g mountain_C_grass_LOD2
v -0.1188998 4.192123 -6.595169
v -3.704735 -3.861674E-06 -13.44435
v 0.3573608 -3.396171E-06 -13.92876
v -0.1717072 6.32671 1.357666
v -0.1188998 4.192123 -6.595169
v 7.235943 -1.810804E-06 -10.03629
v 8.474762 -9.415727E-08 -0.9416199
v -3.331129 7.557337E-07 13.53886
v -0.1717072 6.32671 1.357666
v 2.658665 1.797036E-06 13.69794
v -8.132132 -3.820878E-06 -6.458702
v -6.475327 -3.962212E-06 -11.23237
v -0.1188998 4.192123 -6.595169
v -0.1188998 4.192123 -6.595169
v -6.475327 -3.962212E-06 -11.23237
v -3.704735 -3.861674E-06 -13.44435
v -0.1188998 4.192123 -6.595169
v 0.3573608 -3.396171E-06 -13.92876
v 5.161061 -2.662262E-06 -12.52773
v -0.1188998 4.192123 -6.595169
v -0.1717072 6.32671 1.357666
v -8.600052 -3.454017E-06 0.5747528
v -8.132132 -3.820878E-06 -6.458702
v -8.600052 -3.454017E-06 0.5747528
v -0.1717072 6.32671 1.357666
v -8.490412 -3.226834E-06 4.930283
v 7.235943 -1.810804E-06 -10.03629
v -0.1188998 4.192123 -6.595169
v 5.161061 -2.662262E-06 -12.52773
v -0.1717072 6.32671 1.357666
v 8.474762 -9.415727E-08 -0.9416199
v 8.583442 8.246998E-07 3.813385
v -8.490412 -3.226834E-06 4.930283
v -0.1717072 6.32671 1.357666
v -7.184506 -1.247407E-06 10.56125
v -7.184506 -1.247407E-06 10.56125
v -0.1717072 6.32671 1.357666
v -3.331129 7.557337E-07 13.53886
v 5.927032 1.85978E-06 11.62955
v -0.1717072 6.32671 1.357666
v 7.707449 1.377285E-06 7.767685
v 2.658665 1.797036E-06 13.69794
v -0.1717072 6.32671 1.357666
v 5.927032 1.85978E-06 11.62955
v 7.707449 1.377285E-06 7.767685
v -0.1717072 6.32671 1.357666
v 8.583442 8.246998E-07 3.813385
vt 0.1501347 0.8019665
vt 0.004009215 0.7456946
vt 0.005412642 0.8124791
vt 0.3070771 0.8008009
vt 0.1501347 0.8019665
vt 0.07740174 0.9570448
vt 0.2650163 0.9915768
vt 0.5474621 0.7310631
vt 0.3070771 0.8008009
vt 0.5506012 0.8632755
vt 0.1528277 0.6250905
vt 0.03822498 0.6804757
vt 0.1501347 0.8019665
vt 0.1501347 0.8019665
vt 0.03822498 0.6804757
vt 0.004009215 0.7456946
vt 0.1501347 0.8019665
vt 0.005412642 0.8124791
vt 0.02859593 0.911606
vt 0.1501347 0.8019665
vt 0.3070771 0.8008009
vt 0.2861572 0.6136026
vt 0.1528277 0.6250905
vt 0.2861572 0.6136026
vt 0.3070771 0.8008009
vt 0.3775793 0.6171823
vt 0.07740174 0.9570448
vt 0.1501347 0.8019665
vt 0.02859593 0.911606
vt 0.3070771 0.8008009
vt 0.2650163 0.9915768
vt 0.3718375 0.9915558
vt 0.3775793 0.6171823
vt 0.3070771 0.8008009
vt 0.4832133 0.6452419
vt 0.4832133 0.6452419
vt 0.3070771 0.8008009
vt 0.5474621 0.7310631
vt 0.5097834 0.9354184
vt 0.3070771 0.8008009
vt 0.4422167 0.9684097
vt 0.5506012 0.8632755
vt 0.3070771 0.8008009
vt 0.5097834 0.9354184
vt 0.4422167 0.9684097
vt 0.3070771 0.8008009
vt 0.3718375 0.9915558
vn -0.05942356 0.8649648 -0.4983017
vn -0.05942356 0.8649648 -0.4983017
vn -0.05942356 0.8649648 -0.4983017
vn 0.5077641 0.8497581 -0.1417274
vn 0.5077641 0.8497581 -0.1417274
vn 0.5077641 0.8497581 -0.1417274
vn 0.5077641 0.8497581 -0.1417274
vn -0.012174 0.8886631 0.458399
vn -0.012174 0.8886631 0.458399
vn -0.012174 0.8886631 0.458399
vn -0.4597418 0.8736 -0.1595634
vn -0.4597418 0.8736 -0.1595634
vn -0.4597418 0.8736 -0.1595634
vn -0.3016585 0.8753514 -0.3778387
vn -0.3016585 0.8753514 -0.3778387
vn -0.3016585 0.8753514 -0.3778387
vn 0.1412691 0.8633849 -0.4843651
vn 0.1412691 0.8633849 -0.4843651
vn 0.1412691 0.8633849 -0.4843651
vn -0.5299456 0.8367932 -0.1376035
vn -0.5299456 0.8367932 -0.1376035
vn -0.5299456 0.8367932 -0.1376035
vn -0.5299456 0.8367932 -0.1376035
vn -0.6011611 0.7989845 0.01513276
vn -0.6011611 0.7989845 0.01513276
vn -0.6011611 0.7989845 0.01513276
vn 0.3618421 0.8821914 -0.3013448
vn 0.3618421 0.8821914 -0.3013448
vn 0.3618421 0.8821914 -0.3013448
vn 0.5881276 0.8086565 -0.01344229
vn 0.5881276 0.8086565 -0.01344229
vn 0.5881276 0.8086565 -0.01344229
vn -0.5639591 0.8153797 0.1307903
vn -0.5639591 0.8153797 0.1307903
vn -0.5639591 0.8153797 0.1307903
vn -0.2933461 0.8774021 0.3796231
vn -0.2933461 0.8774021 0.3796231
vn -0.2933461 0.8774021 0.3796231
vn 0.4911697 0.8411162 0.2264416
vn 0.4911697 0.8411162 0.2264416
vn 0.4911697 0.8411162 0.2264416
vn 0.2503605 0.8836371 0.3956073
vn 0.2503605 0.8836371 0.3956073
vn 0.2503605 0.8836371 0.3956073
vn 0.5581922 0.8204454 0.1236558
vn 0.5581922 0.8204454 0.1236558
vn 0.5581922 0.8204454 0.1236558
g mountain_C_grass_LOD2_0
f 3/3/3 2/2/2 1/1/1
f 6/6/6 5/5/5 4/4/4
f 7/7/7 6/6/6 4/4/4
f 10/10/10 9/9/9 8/8/8
f 13/13/13 12/12/12 11/11/11
f 16/16/16 15/15/15 14/14/14
f 19/19/19 18/18/18 17/17/17
f 22/22/22 21/21/21 20/20/20
f 23/23/23 22/22/22 20/20/20
f 26/26/26 25/25/25 24/24/24
f 29/29/29 28/28/28 27/27/27
f 32/32/32 31/31/31 30/30/30
f 35/35/35 34/34/34 33/33/33
f 38/38/38 37/37/37 36/36/36
f 41/41/41 40/40/40 39/39/39
f 44/44/44 43/43/43 42/42/42
f 47/47/47 46/46/46 45/45/45
