g mountain_B_grass_LOD2
v -5.997778 -4.963726E-06 -10.50727
v -0.5058463 -5.087907E-06 -11.98277
v -0.3611832 8.043625 0.4059143
v -0.3611832 8.043625 0.4059143
v -9.335802 -3.102675E-06 5.352951
v -10.60354 -3.596943E-06 0.5378952
v -6.092572 -1.236444E-06 10.12612
v -9.335802 -3.102675E-06 5.352951
v -0.3611832 8.043625 0.4059143
v -0.3611832 8.043625 0.4059143
v -0.5058463 -5.087907E-06 -11.98277
v 5.62524 -4.808924E-06 -11.06667
v -0.3611832 8.043625 0.4059143
v 10.63953 -4.144395E-06 -1.21743
v 9.439041 -3.595003E-06 6.117874
v -0.3611832 8.043625 0.4059143
v 8.989212 -4.631831E-06 -7.725502
v 10.63953 -4.144395E-06 -1.21743
v -1.495271 -1.692516E-06 11.31764
v -0.3611832 8.043625 0.4059143
v 4.134052 -2.467869E-06 10.87465
v 4.134052 -2.467869E-06 10.87465
v -0.3611832 8.043625 0.4059143
v 9.439041 -3.595003E-06 6.117874
v -0.3611832 8.043625 0.4059143
v -10.60354 -3.596943E-06 0.5378952
v -9.953209 -4.154013E-06 -4.888962
v -0.3611832 8.043625 0.4059143
v -1.495271 -1.692516E-06 11.31764
v -6.092572 -1.236444E-06 10.12612
v -0.3611832 8.043625 0.4059143
v 5.62524 -4.808924E-06 -11.06667
v 8.989212 -4.631831E-06 -7.725502
v -5.997778 -4.963726E-06 -10.50727
v -0.3611832 8.043625 0.4059143
v -9.953209 -4.154013E-06 -4.888962
vt 0.8889192 0.528562
vt 0.7679625 0.5124086
vt 0.7905678 0.7486947
vt 0.7905678 0.7486947
vt 0.9866906 0.8236499
vt 0.9940464 0.7304327
vt 0.9049416 0.9391763
vt 0.9866906 0.8236499
vt 0.7905678 0.7486947
vt 0.7905678 0.7486947
vt 0.7679625 0.5124086
vt 0.6452746 0.5429341
vt 0.7905678 0.7486947
vt 0.5577679 0.739795
vt 0.5960824 0.8786648
vt 0.7905678 0.7486947
vt 0.5724254 0.6126385
vt 0.5577679 0.739795
vt 0.8221342 0.9635464
vt 0.7905678 0.7486947
vt 0.7152576 0.9578977
vt 0.7152576 0.9578977
vt 0.7905678 0.7486947
vt 0.5960824 0.8786648
vt 0.7905678 0.7486947
vt 0.9940464 0.7304327
vt 0.981445 0.6271215
vt 0.7905678 0.7486947
vt 0.8221342 0.9635464
vt 0.9049416 0.9391763
vt 0.7905678 0.7486947
vt 0.6452746 0.5429341
vt 0.5724254 0.6126385
vt 0.8889192 0.528562
vt 0.7905678 0.7486947
vt 0.981445 0.6271215
vn -0.1444514 0.8306954 -0.5376607
vn -0.1444514 0.8306954 -0.5376607
vn -0.1444514 0.8306954 -0.5376607
vn -0.6083822 0.7773119 0.1601786
vn -0.6083822 0.7773119 0.1601786
vn -0.6083822 0.7773119 0.1601786
vn -0.512066 0.785322 0.3479336
vn -0.512066 0.785322 0.3479336
vn -0.512066 0.785322 0.3479336
vn 0.08119901 0.8355196 -0.5434278
vn 0.08119901 0.8355196 -0.5434278
vn 0.08119901 0.8355196 -0.5434278
vn 0.5967682 0.7964477 0.09766652
vn 0.5967682 0.7964477 0.09766652
vn 0.5967682 0.7964477 0.09766652
vn 0.5700512 0.8087928 -0.1445538
vn 0.5700512 0.8087928 -0.1445538
vn 0.5700512 0.8087928 -0.1445538
vn 0.04689081 0.8017166 0.5958623
vn 0.04689081 0.8017166 0.5958623
vn 0.04689081 0.8017166 0.5958623
vn 0.3988761 0.801879 0.444846
vn 0.3988761 0.801879 0.444846
vn 0.3988761 0.801879 0.444846
vn -0.6165352 0.7838531 -0.07388297
vn -0.6165352 0.7838531 -0.07388297
vn -0.6165352 0.7838531 -0.07388297
vn -0.1494391 0.8032517 0.5765887
vn -0.1494391 0.8032517 0.5765887
vn -0.1494391 0.8032517 0.5765887
vn 0.3844079 0.838115 -0.3870321
vn 0.3844079 0.838115 -0.3870321
vn 0.3844079 0.838115 -0.3870321
vn -0.48577 0.804405 -0.3419942
vn -0.48577 0.804405 -0.3419942
vn -0.48577 0.804405 -0.3419942
g mountain_B_grass_LOD2_0
f 3/3/3 2/2/2 1/1/1
f 6/6/6 5/5/5 4/4/4
f 9/9/9 8/8/8 7/7/7
f 12/12/12 11/11/11 10/10/10
f 15/15/15 14/14/14 13/13/13
f 18/18/18 17/17/17 16/16/16
f 21/21/21 20/20/20 19/19/19
f 24/24/24 23/23/23 22/22/22
f 27/27/27 26/26/26 25/25/25
f 30/30/30 29/29/29 28/28/28
f 33/33/33 32/32/32 31/31/31
f 36/36/36 35/35/35 34/34/34
