g mountain_B_grass_LOD15_edge
v -7.434097 0.4482113 4.000374
v -7.988592 -1.612081E-06 8.080971
v -9.538698 -2.360581E-06 4.341911
v -9.953209 -4.154014E-06 -4.888962
v -8.348432 0.44821 -4.186615
v -6.282571 0.4482094 -7.780525
v -6.333086 0.4482119 7.346611
v -4.975517 0.4482122 9.563286
v -5.84152 -1.100842E-06 10.56644
v -2.552303 -6.778064E-07 11.84857
v -2.261821 0.4482124 10.53915
v 4.14613 0.4482122 9.528648
v 4.134052 -2.46787E-06 10.87465
v 8.460251 -3.457853E-06 6.959694
v 7.702963 0.3436432 5.811302
v 9.90687 -3.617053E-06 3.757965
v 8.82675 0.3436427 3.195114
v 9.842917 -4.208363E-06 -2.071495
v 8.652064 0.4482104 -1.960701
v 8.989212 -4.631831E-06 -7.725502
v 7.581035 0.4482095 -7.027992
v 4.913578 0.4482091 -9.760498
v 5.62524 -4.808924E-06 -11.06667
v -2.006766 0.448209 -10.14368
v -2.178948 -5.091737E-06 -11.78898
v -6.854072 -4.788435E-06 -9.290989
vt 0.9414576 0.803027
vt 0.9633431 0.8814866
vt 0.9805797 0.8061539
vt 0.981445 0.6271215
vt 0.9465351 0.6428084
vt 0.8948227 0.5766376
vt 0.9281158 0.870552
vt 0.8974056 0.9136776
vt 0.9154329 0.9308369
vt 0.8476489 0.9638603
vt 0.8414708 0.9393431
vt 0.7107244 0.9328988
vt 0.7117957 0.9576346
vt 0.6225302 0.8945749
vt 0.6336306 0.8716778
vt 0.5910868 0.8387753
vt 0.6089596 0.8259512
vt 0.5628919 0.7250816
vt 0.5884701 0.724754
vt 0.5729226 0.6082778
vt 0.6057469 0.6204205
vt 0.6670124 0.563859
vt 0.6509163 0.5399249
vt 0.8055749 0.5404518
vt 0.8047633 0.5095192
vt 0.904438 0.5478415
vn -0.2095271 0.976691 0.04661698
vn -0.2184311 0.9693545 0.1124272
vn -0.2013171 0.978553 0.04365187
vn -0.2449082 0.9674592 -0.06358127
vn -0.2532538 0.9666443 -0.03822564
vn -0.2051532 0.9584838 -0.1980429
vn -0.217897 0.9707056 0.1012495
vn -0.1761077 0.9520407 0.2502088
vn -0.1885012 0.9469312 0.2603621
vn -0.03655311 0.9474455 0.3178222
vn -0.02256777 0.9473906 0.319283
vn 0.1852353 0.9351932 0.3018302
vn 0.1245484 0.9410557 0.3144867
vn 0.2260128 0.9615855 0.1557934
vn 0.2331797 0.9633511 0.1325965
vn 0.2739297 0.9596011 0.0642513
vn 0.2856244 0.9573326 0.04396767
vn 0.3469376 0.937589 -0.02368792
vn 0.3443645 0.9385346 -0.02378897
vn 0.2491095 0.9596401 -0.1305193
vn 0.2411439 0.9615967 -0.1310775
vn 0.1109593 0.9573954 -0.2666123
vn 0.1201468 0.9584391 -0.2587649
vn -0.05920111 0.9642882 -0.2581539
vn -0.04847891 0.9649796 -0.2578064
vn -0.1792033 0.9592592 -0.2184214
g mountain_B_grass_LOD15_edge_0
f 3/3/3 2/2/2 1/1/1
f 3/3/3 1/1/1 4/4/4
f 5/5/5 4/4/4 1/1/1
f 4/4/4 5/5/5 6/6/6
f 2/2/2 7/7/7 1/1/1
f 7/7/7 2/2/2 8/8/8
f 9/9/9 8/8/8 2/2/2
f 9/9/9 10/10/10 8/8/8
f 11/11/11 8/8/8 10/10/10
f 11/11/11 10/10/10 12/12/12
f 13/13/13 12/12/12 10/10/10
f 13/13/13 14/14/14 12/12/12
f 15/15/15 12/12/12 14/14/14
f 14/14/14 16/16/16 15/15/15
f 17/17/17 15/15/15 16/16/16
f 16/16/16 18/18/18 17/17/17
f 19/19/19 17/17/17 18/18/18
f 18/18/18 20/20/20 19/19/19
f 21/21/21 19/19/19 20/20/20
f 22/22/22 21/21/21 20/20/20
f 23/23/23 22/22/22 20/20/20
f 22/22/22 23/23/23 24/24/24
f 25/25/25 24/24/24 23/23/23
f 25/25/25 26/26/26 24/24/24
f 6/6/6 24/24/24 26/26/26
f 26/26/26 4/4/4 6/6/6
