g mountain_B_grass_edge_LOD0
v -8.907562 0.00999939 -4.600426
v -9.953209 -3.393159E-07 -4.888969
v -9.10467 -1.998455E-06 -6.966614
v -8.150087 0.009998176 -6.451454
v -7.67297 -1.785072E-06 -9.049183
v -6.861973 0.009998233 -8.328827
v -5.997778 -1.149028E-06 -10.50728
v -5.432541 0.009999094 -9.581474
v -4.149357 -9.072201E-07 -11.25464
v -3.790071 0.00999984 -10.23116
v -2.698475 -3.037676E-07 -11.69645
v -2.48321 0.01000017 -10.6333
v -0.8765583 -4.079702E-07 -11.88563
v -0.8098335 0.01000016 -10.80296
v 1.231819 -6.263899E-07 -11.9303
v 1.179211 0.01000005 -10.84686
v 3.429314 -8.030158E-07 -11.66724
v 3.2239 0.009999959 -10.60216
v 5.62524 -9.942265E-07 -11.06667
v 5.178928 0.009999842 -10.07803
v 7.478214 -1.865947E-06 -9.831829
v 6.724846 0.009999852 -9.051414
v 8.989212 -8.171332E-07 -7.72551
v 8.012688 0.01 -7.253265
v 9.552414 -5.78498E-07 -5.815559
v 8.497517 0.01000016 -5.562935
v 9.969387 -3.172886E-07 -3.657661
v 8.896935 0.01000034 -3.49498
v 10.25185 -1.12896E-07 -1.107185
v 9.169788 0.01000044 -1.031242
v 10.33564 -2.423372E-08 1.842422
v 9.253426 0.01000039 1.768768
v 9.897381 5.136035E-07 4.485359
v 8.837925 0.01000078 4.252579
v 9.439041 2.196941E-07 6.117867
v 8.449638 0.01000097 5.673225
v 8.415268 1.162045E-06 7.703293
v 7.564751 0.01000116 7.030052
v 6.860302 1.565189E-06 9.324821
v 6.193382 0.01000139 8.46933
v 4.134052 1.346828E-06 10.87464
v 3.693542 0.01000161 9.883377
v 2.22657 2.27829E-06 11.51252
v 1.958267 0.01000177 10.46149
v -0.109211 3.171505E-06 11.93034
v -0.1899128 0.01000197 10.84861
v -2.552303 3.136891E-06 11.84856
v -2.336086 0.01000202 10.7856
v -4.947994 2.707379E-06 10.91869
v -4.411747 0.01000188 9.975777
v -6.545656 2.560264E-06 9.682343
v -5.80759 0.01000172 8.887421
v -7.988592 2.202617E-06 8.080963
v -7.091879 0.01000137 7.470596
v -9.335802 7.120225E-07 5.352943
v -8.304943 0.009999963 5.015343
v -9.85808 4.27467E-08 2.44474
v -8.786781 0.009998972 2.274559
v -10.20609 -4.443868E-07 -0.01208496
v -9.126665 0.009999021 -0.1192627
v -10.33564 1.183116E-07 -2.372574
v -9.25209 0.009999379 -2.322052
vt 0.9601258 0.6348726
vt 0.981445 0.6271215
vt 0.9600511 0.5893515
vt 0.9410344 0.6012257
vt 0.9264738 0.5527439
vt 0.9108183 0.5682198
vt 0.8889192 0.528562
vt 0.878758 0.5474242
vt 0.8490064 0.5182996
vt 0.8433177 0.5385795
vt 0.817934 0.5130041
vt 0.8153225 0.5337297
vt 0.7795627 0.5133227
vt 0.7800869 0.5341005
vt 0.735467 0.5170121
vt 0.7384837 0.5375475
vt 0.6900555 0.5267583
vt 0.6962301 0.5466154
vt 0.6452746 0.5429341
vt 0.656343 0.5608153
vt 0.6087767 0.5704594
vt 0.6258866 0.5837106
vt 0.5809612 0.6138579
vt 0.6021844 0.6207551
vt 0.5725851 0.6514721
vt 0.5950556 0.6540148
vt 0.5677009 0.6934972
vt 0.5903786 0.6942879
vt 0.5663201 0.7427148
vt 0.5890447 0.7418316
vt 0.5697935 0.7991109
vt 0.5922565 0.7953764
vt 0.5836229 0.8485383
vt 0.6053289 0.8418202
vt 0.5960824 0.8786648
vt 0.6159509 0.8680596
vt 0.6202629 0.9066762
vt 0.6368272 0.8920133
vt 0.6555973 0.9342316
vt 0.6680057 0.9164906
vt 0.7152576 0.9578977
vt 0.7226986 0.9380565
vt 0.7562095 0.9659466
vt 0.7599498 0.9453375
vt 0.8057133 0.9688787
vt 0.8054827 0.9480886
vt 0.8565731 0.9620585
vt 0.8501768 0.9422655
vt 0.9049416 0.9391763
vt 0.8920767 0.9223607
vt 0.9361066 0.9121722
vt 0.9192903 0.8986115
vt 0.9633954 0.8785442
vt 0.9435939 0.8688425
vt 0.9866906 0.8236499
vt 0.9645715 0.8194358
vt 0.9924445 0.7670979
vt 0.9697778 0.7661617
vt 0.9953598 0.7195243
vt 0.9726347 0.7198064
vt 0.9938849 0.6742573
vt 0.971353 0.6775538
vn -0.008879217 0.9999576 -0.002450905
vn -0.008879225 0.9999576 -0.002450876
vn -0.008119004 0.9999574 -0.004382786
vn -0.00811896 0.9999574 -0.004382867
vn -0.00689236 0.9999574 -0.006137185
vn -0.00689123 0.9999574 -0.0061385
vn -0.004789687 0.9999579 -0.00782411
vn -0.004791683 0.9999579 -0.007822919
vn -0.00307791 0.9999571 -0.008731809
vn -0.003078472 0.9999571 -0.008731646
vn -0.001825034 0.9999577 -0.00901823
vn -0.001824886 0.9999577 -0.00901826
vn -0.0005716097 0.9999574 -0.009214289
vn -0.0005717982 0.9999574 -0.009214281
vn 0.000449308 0.9999576 -0.009204564
vn 0.0004495078 0.9999576 -0.009204555
vn 0.001763051 0.9999573 -0.009072535
vn 0.001764177 0.9999573 -0.009072357
vn 0.003803642 0.9999576 -0.008380691
vn 0.003806927 0.9999576 -0.008379287
vn 0.006397292 0.9999576 -0.006623967
vn 0.006397627 0.9999576 -0.006623643
vn 0.008267154 0.9999577 -0.004022237
vn 0.008265261 0.9999577 -0.00402638
vn 0.008989718 0.9999572 -0.002172375
vn 0.008989544 0.9999572 -0.002173423
vn 0.009115211 0.9999575 -0.001383022
vn 0.00911521 0.9999575 -0.001383034
vn 0.009205595 0.9999574 -0.0006425658
vn 0.009205612 0.9999574 -0.0006423932
vn 0.009180912 0.9999577 0.0006248277
vn 0.009180912 0.9999577 0.0006248286
vn 0.009031606 0.9999572 0.001998291
vn 0.009031442 0.9999572 0.001999157
vn 0.008369926 0.9999579 0.003767528
vn 0.00836945 0.9999579 0.003768598
vn 0.00725501 0.9999572 0.005738262
vn 0.007255256 0.9999572 0.005737952
vn 0.005648618 0.9999577 0.007249384
vn 0.00564823 0.9999577 0.007249687
vn 0.003755433 0.9999574 0.008428728
vn 0.003756355 0.9999574 0.008428342
vn 0.002282566 0.9999574 0.008942128
vn 0.002282535 0.9999574 0.008942136
vn 0.0006726891 0.9999574 0.009206835
vn 0.0006709199 0.9999574 0.009207017
vn -0.001837939 0.9999578 0.009002687
vn -0.001839239 0.9999578 0.009002433
vn -0.004541593 0.9999576 0.008014439
vn -0.004539436 0.9999576 0.008015717
vn -0.00628955 0.9999573 0.006776287
vn -0.006289419 0.9999573 0.006776408
vn -0.007615187 0.9999576 0.005172852
vn -0.007615996 0.9999576 0.005171692
vn -0.008734608 0.9999577 0.002870245
vn -0.008734151 0.9999577 0.002871724
vn -0.009126142 0.9999573 0.001457747
vn -0.009126137 0.9999573 0.001457921
vn -0.009181509 0.9999574 0.0009057454
vn -0.009181549 0.9999574 0.0009054389
vn -0.009201488 0.9999576 -0.0004363339
vn -0.00920146 0.9999576 -0.0004372506
g mountain_B_grass_edge_LOD0_0
f 3/3/3 2/2/2 1/1/1
f 4/4/4 3/3/3 1/1/1
f 5/5/5 3/3/3 4/4/4
f 6/6/6 5/5/5 4/4/4
f 7/7/7 5/5/5 6/6/6
f 8/8/8 7/7/7 6/6/6
f 9/9/9 7/7/7 8/8/8
f 10/10/10 9/9/9 8/8/8
f 11/11/11 9/9/9 10/10/10
f 12/12/12 11/11/11 10/10/10
f 13/13/13 11/11/11 12/12/12
f 14/14/14 13/13/13 12/12/12
f 15/15/15 13/13/13 14/14/14
f 16/16/16 15/15/15 14/14/14
f 17/17/17 15/15/15 16/16/16
f 18/18/18 17/17/17 16/16/16
f 19/19/19 17/17/17 18/18/18
f 20/20/20 19/19/19 18/18/18
f 21/21/21 19/19/19 20/20/20
f 22/22/22 21/21/21 20/20/20
f 23/23/23 21/21/21 22/22/22
f 24/24/24 23/23/23 22/22/22
f 25/25/25 23/23/23 24/24/24
f 26/26/26 25/25/25 24/24/24
f 27/27/27 25/25/25 26/26/26
f 28/28/28 27/27/27 26/26/26
f 29/29/29 27/27/27 28/28/28
f 30/30/30 29/29/29 28/28/28
f 31/31/31 29/29/29 30/30/30
f 32/32/32 31/31/31 30/30/30
f 33/33/33 31/31/31 32/32/32
f 34/34/34 33/33/33 32/32/32
f 35/35/35 33/33/33 34/34/34
f 36/36/36 35/35/35 34/34/34
f 37/37/37 35/35/35 36/36/36
f 38/38/38 37/37/37 36/36/36
f 39/39/39 37/37/37 38/38/38
f 40/40/40 39/39/39 38/38/38
f 41/41/41 39/39/39 40/40/40
f 42/42/42 41/41/41 40/40/40
f 43/43/43 41/41/41 42/42/42
f 44/44/44 43/43/43 42/42/42
f 45/45/45 43/43/43 44/44/44
f 46/46/46 45/45/45 44/44/44
f 47/47/47 45/45/45 46/46/46
f 48/48/48 47/47/47 46/46/46
f 49/49/49 47/47/47 48/48/48
f 50/50/50 49/49/49 48/48/48
f 51/51/51 49/49/49 50/50/50
f 52/52/52 51/51/51 50/50/50
f 53/53/53 51/51/51 52/52/52
f 54/54/54 53/53/53 52/52/52
f 55/55/55 53/53/53 54/54/54
f 56/56/56 55/55/55 54/54/54
f 57/57/57 55/55/55 56/56/56
f 58/58/58 57/57/57 56/56/56
f 59/59/59 57/57/57 58/58/58
f 60/60/60 59/59/59 58/58/58
f 61/61/61 59/59/59 60/60/60
f 62/62/62 61/61/61 60/60/60
f 2/2/2 61/61/61 62/62/62
f 1/1/1 2/2/2 62/62/62
