g mountain_A_grass_edge_LOD1
v -18.25006 0.04020875 20.03434
v -8.033942 0.04020806 24.46878
v -10.34645 7.646754E-05 25.59012
v -19.45934 2.30492E-05 21.57432
v 0.8765354 0.0001421286 27.64593
v 1.988355 0.04021198 25.8685
v 13.25815 -5.794526E-05 25.31676
v 12.3226 0.04020716 23.96356
v 16.06966 0.0402071 18.23177
v 17.6536 -7.198704E-05 19.27497
v 18.56472 -2.01643E-06 8.483674
v 16.56985 0.04020551 8.574795
v 12.28793 0.04020805 -12.54726
v 13.33711 0.000488453 -15.3214
v 9.586599 0.04020613 -18.52322
v 10.42954 0.0005592686 -20.44473
v 5.009161 0.0006459607 -25.28765
v 3.533526 0.0402038 -24.04395
v -1.106337 0.0003321184 -26.26184
v -1.089292 0.04020545 -24.59428
v -5.521676 0.04020641 -21.65898
v -8.174141 0.0006531718 -22.60273
v -7.718106 0.04020238 -18.1413
v -10.14016 0.0001739356 -19.54872
v -10.29015 0.04020442 -1.069355
v -11.56201 0.0002882531 -2.688767
v -19.84548 0.04020645 3.531761
v -21.51893 9.864633E-05 2.146083
v -24.91484 3.558857E-05 7.138777
v -22.33866 0.04020573 8.748151
v -25.24856 6.537903E-05 13.99552
v -22.30491 0.04020787 13.80449
vt 0.164873 0.5300432
vt 0.08562028 0.409182
vt 0.07732575 0.4430802
vt 0.1490354 0.5502287
vt 0.02604524 0.2998503
vt 0.04500956 0.2802842
vt 0.02454697 0.1306166
vt 0.04328319 0.1391431
vt 0.1040491 0.0739217
vt 0.08752438 0.05600892
vt 0.2167465 0.01396634
vt 0.2204483 0.04044079
vt 0.4880067 0.03787186
vt 0.5192604 0.01635202
vt 0.5657303 0.05527684
vt 0.5851055 0.03700062
vt 0.6607187 0.09804668
vt 0.6491315 0.1209077
vt 0.6873327 0.1757146
vt 0.6669835 0.1801368
vt 0.6419271 0.2465745
vt 0.6598178 0.2788091
vt 0.6043854 0.2852454
vt 0.6273672 0.3131596
vt 0.4026817 0.3666185
vt 0.4254709 0.3788239
vt 0.3696945 0.5050338
vt 0.3906058 0.5231689
vt 0.337994 0.5817155
vt 0.2940585 0.5568386
vt 0.2552954 0.6052063
vt 0.250522 0.5659825
vn -0.01169659 0.9998222 0.01478992
vn -0.004932768 0.9997422 0.02216746
vn -0.007361106 0.9997728 0.02000169
vn -0.01163065 0.9998217 0.0148753
vn -0.001210843 0.999711 0.02401038
vn 0.001977419 0.999685 0.02501892
vn 0.01230874 0.9997358 0.01941283
vn 0.01199543 0.9997343 0.0196861
vn 0.02088257 0.9997603 0.006570667
vn 0.02043556 0.9997554 0.008455913
vn 0.02198931 0.9997571 -0.00150447
vn 0.02198651 0.9997569 -0.001600086
vn 0.02113029 0.9997602 -0.005739312
vn 0.01927984 0.9997786 -0.008427888
vn 0.01685493 0.9997932 -0.01138254
vn 0.01525737 0.9997966 -0.01318645
vn 0.01025939 0.9997756 -0.01853479
vn 0.00742117 0.9997416 -0.02148874
vn -0.002824371 0.9997382 -0.0227093
vn -0.004538202 0.9997483 -0.02196927
vn -0.0114211 0.9998252 -0.01479964
vn -0.01178244 0.9998674 -0.01123996
vn -0.01630943 0.9998559 -0.004716611
vn -0.0153743 0.9998674 -0.005369747
vn -0.01287362 0.9998434 -0.01214362
vn -0.01503625 0.999846 -0.009048331
vn -0.0109735 0.9998534 -0.01314885
vn -0.01138478 0.9998602 -0.0122444
vn -0.01385032 0.9998929 -0.004723893
vn -0.01403947 0.9998958 -0.003359124
vn -0.01463724 0.9998846 0.004064242
vn -0.01470911 0.9998749 0.00580478
g mountain_A_grass_edge_LOD1_0
f 3/3/3 2/2/2 1/1/1
f 4/4/4 3/3/3 1/1/1
f 3/3/3 5/5/5 2/2/2
f 5/5/5 6/6/6 2/2/2
f 5/5/5 7/7/7 6/6/6
f 7/7/7 8/8/8 6/6/6
f 9/9/9 8/8/8 7/7/7
f 10/10/10 9/9/9 7/7/7
f 10/10/10 11/11/11 9/9/9
f 11/11/11 12/12/12 9/9/9
f 13/13/13 12/12/12 11/11/11
f 14/14/14 13/13/13 11/11/11
f 15/15/15 13/13/13 14/14/14
f 16/16/16 15/15/15 14/14/14
f 16/16/16 17/17/17 15/15/15
f 17/17/17 18/18/18 15/15/15
f 17/17/17 19/19/19 18/18/18
f 19/19/19 20/20/20 18/18/18
f 21/21/21 20/20/20 19/19/19
f 22/22/22 21/21/21 19/19/19
f 23/23/23 21/21/21 22/22/22
f 24/24/24 23/23/23 22/22/22
f 25/25/25 23/23/23 24/24/24
f 26/26/26 25/25/25 24/24/24
f 27/27/27 25/25/25 26/26/26
f 28/28/28 27/27/27 26/26/26
f 28/28/28 29/29/29 27/27/27
f 29/29/29 30/30/30 27/27/27
f 29/29/29 31/31/31 30/30/30
f 31/31/31 32/32/32 30/30/30
f 32/32/32 31/31/31 4/4/4
f 1/1/1 32/32/32 4/4/4
