g mountain_D_grass_edge_LOD0
v 7.559681 0.005874366 0.7864075
v 6.652626 0.005890801 -1.108032
v 8.17416 1.399005E-05 -1.054077
v 8.984295 -1.584334E-06 0.8573761
v 7.916447 0.005871302 3.275391
v 9.436223 -4.33574E-06 3.184525
v 7.912695 0.005874422 5.93161
v 9.398579 -1.517153E-06 6.263458
v 7.74605 3.620062E-07 9.749557
v 6.523565 0.005876636 8.842087
v 4.468233 0.005876632 10.71173
v 5.209435 1.03705E-06 12.04163
v 2.608083 -3.206662E-06 12.83301
v 2.358355 0.0058732 11.33113
v 0.6404037 -4.030649E-06 12.93961
v 0.7268181 0.005872307 11.41957
v -1.436283 0.005875601 11.04655
v -1.922371 3.472587E-06 12.48936
v -4.458786 0.005872931 9.455994
v -5.415501 -1.080598E-06 10.64035
v -7.710457 -3.345315E-06 7.903137
v -6.392971 0.005872588 7.140106
v -8.964806 3.272813E-06 4.583832
v -7.485497 0.005877692 4.223816
v -9.365726 -7.824083E-07 1.431259
v -7.848293 0.005873454 1.307205
v -9.436222 2.955712E-06 -2.90419
v -7.990005 0.005877488 -2.988266
v -8.843527 3.123193E-09 -6.559372
v -7.425091 0.005875221 -6.00618
v -7.054087 -1.423214E-06 -9.796753
v -5.838524 0.005871733 -8.880035
v -3.382044 0.005871207 -11.12881
v -3.988295 -2.557777E-06 -12.37614
v -0.7339249 -7.398685E-07 -12.93961
v -0.6664524 0.005871998 -11.50417
v 2.147163 -1.228064E-06 -12.57635
v 1.780773 0.005871847 -11.0986
v 4.155399 0.005871911 -10.28476
v 4.851933 -1.20091E-06 -11.49971
v 6.28456 0.005871387 -8.732574
v 7.316205 -2.6163E-06 -9.500458
v 8.722537 -4.819194E-06 -5.567993
v 7.464899 0.005870368 -5.447784
v 8.947295 -2.204458E-06 -2.759827
v 7.461078 0.00587422 -2.612442
vt 0.7186913 0.2699352
vt 0.7335087 0.2343388
vt 0.7086533 0.2353525
vt 0.6954191 0.2712687
vt 0.7128632 0.3167031
vt 0.6880365 0.3149956
vt 0.7129245 0.3666133
vt 0.6886515 0.3728488
vt 0.7156468 0.4383523
vt 0.7356169 0.421301
vt 0.7691925 0.4564313
vt 0.7570844 0.48142
vt 0.7995793 0.4962899
vt 0.8036587 0.4680698
vt 0.8317228 0.4982928
vt 0.8303111 0.4697319
vt 0.865647 0.4627229
vt 0.8735875 0.4898332
vt 0.9150219 0.4328362
vt 0.9306504 0.4550902
vt 0.9681402 0.4036579
vt 0.9466183 0.3893209
vt 0.9886308 0.3412886
vt 0.9644653 0.3345239
vt 0.9951804 0.2820521
vt 0.9703919 0.2797211
vt 0.9963319 0.2005891
vt 0.9727068 0.1990094
vt 0.9866498 0.1319085
vt 0.9634786 0.142303
vt 0.957418 0.07107837
vt 0.9375608 0.08830343
vt 0.8974324 0.04604892
vt 0.9073359 0.02261177
vt 0.8541735 0.01202441
vt 0.8530712 0.03899607
vt 0.8071088 0.0188498
vt 0.813094 0.04661686
vt 0.7743027 0.06190875
vt 0.7629243 0.03907992
vt 0.7395213 0.09107415
vt 0.7226685 0.0766457
vt 0.6996951 0.1505365
vt 0.7202395 0.1527952
vt 0.6960236 0.2033017
vt 0.720302 0.2060711
vn 0.0040666 0.99999 -0.001826408
vn 0.0040666 0.99999 -0.001826409
vn 0.0040666 0.99999 -0.001826408
vn 0.0040666 0.99999 -0.001826409
vn 0.003986631 0.9999918 -0.0006682021
vn 0.003986631 0.9999918 -0.0006682021
vn 0.003907608 0.9999924 2.716952E-05
vn 0.003907607 0.9999924 2.716951E-05
vn 0.003563993 0.9999922 0.001694087
vn 0.003563993 0.9999922 0.001694088
vn 0.002651447 0.9999922 0.00292539
vn 0.002651447 0.9999922 0.002925391
vn 0.001123381 0.9999923 0.003756912
vn 0.001123381 0.9999923 0.003756912
vn 0.0002096581 0.9999924 0.003877815
vn 0.0002096581 0.9999924 0.003877816
vn -0.0006660481 0.9999924 0.003836537
vn -0.000666048 0.9999924 0.003836536
vn -0.001830611 0.9999923 0.00346565
vn -0.001830611 0.9999923 0.00346565
vn -0.003009918 0.9999923 0.002518604
vn -0.003009918 0.9999923 0.002518604
vn -0.003649091 0.9999924 0.001375278
vn -0.003649091 0.9999924 0.001375278
vn -0.003842561 0.9999925 0.0004821636
vn -0.003842561 0.9999925 0.0004821636
vn -0.003957363 0.9999922 9.819987E-05
vn -0.003957363 0.9999922 9.819987E-05
vn -0.003988173 0.9999918 -0.0006926275
vn -0.003988172 0.9999918 -0.0006926275
vn -0.003408894 0.9999924 -0.001883966
vn -0.003408895 0.9999924 -0.001883966
vn -0.002733575 0.9999914 -0.003126899
vn -0.002733575 0.9999914 -0.003126899
vn -0.0006628008 0.9999909 -0.004212009
vn -0.0006628007 0.9999909 -0.004212009
vn 0.0005733881 0.999992 -0.003973071
vn 0.0005733881 0.999992 -0.003973071
vn 0.001415564 0.9999918 -0.00380341
vn 0.001415564 0.9999918 -0.00380341
vn 0.002736708 0.99999 -0.003539115
vn 0.002736708 0.99999 -0.003539116
vn 0.00450589 0.9999886 -0.001614469
vn 0.00450589 0.9999886 -0.001614469
vn 0.004266443 0.9999909 -0.0001681721
vn 0.004266443 0.9999909 -0.0001681721
g mountain_D_grass_edge_LOD0_0
f 3/3/3 2/2/2 1/1/1
f 4/4/4 3/3/3 1/1/1
f 4/4/4 1/1/1 5/5/5
f 6/6/6 4/4/4 5/5/5
f 6/6/6 5/5/5 7/7/7
f 8/8/8 6/6/6 7/7/7
f 8/8/8 7/7/7 9/9/9
f 7/7/7 10/10/10 9/9/9
f 9/9/9 10/10/10 11/11/11
f 12/12/12 9/9/9 11/11/11
f 12/12/12 11/11/11 13/13/13
f 11/11/11 14/14/14 13/13/13
f 13/13/13 14/14/14 15/15/15
f 14/14/14 16/16/16 15/15/15
f 15/15/15 16/16/16 17/17/17
f 18/18/18 15/15/15 17/17/17
f 18/18/18 17/17/17 19/19/19
f 20/20/20 18/18/18 19/19/19
f 20/20/20 19/19/19 21/21/21
f 19/19/19 22/22/22 21/21/21
f 21/21/21 22/22/22 23/23/23
f 22/22/22 24/24/24 23/23/23
f 23/23/23 24/24/24 25/25/25
f 24/24/24 26/26/26 25/25/25
f 25/25/25 26/26/26 27/27/27
f 26/26/26 28/28/28 27/27/27
f 27/27/27 28/28/28 29/29/29
f 28/28/28 30/30/30 29/29/29
f 29/29/29 30/30/30 31/31/31
f 30/30/30 32/32/32 31/31/31
f 31/31/31 32/32/32 33/33/33
f 34/34/34 31/31/31 33/33/33
f 34/34/34 33/33/33 35/35/35
f 33/33/33 36/36/36 35/35/35
f 35/35/35 36/36/36 37/37/37
f 36/36/36 38/38/38 37/37/37
f 37/37/37 38/38/38 39/39/39
f 40/40/40 37/37/37 39/39/39
f 40/40/40 39/39/39 41/41/41
f 42/42/42 40/40/40 41/41/41
f 42/42/42 41/41/41 43/43/43
f 41/41/41 44/44/44 43/43/43
f 43/43/43 44/44/44 45/45/45
f 44/44/44 46/46/46 45/45/45
f 45/45/45 46/46/46 3/3/3
f 46/46/46 2/2/2 3/3/3
