g mountain_B_grass_edge_LOD1
v -6.978416 0.5512242 -6.845963
v -9.953209 -4.154014E-06 -4.888962
v -5.997778 -4.963726E-06 -10.50727
v -8.834044 0.5512357 -4.800468
v -9.149265 0.5512279 -2.406845
v -10.33564 -3.696386E-06 -2.372566
v -8.321225 0.5512249 4.631363
v -9.335802 -3.102675E-06 5.352951
v -7.988592 -1.612081E-06 8.080971
v -6.687608 0.5512257 7.671074
v -3.91666 0.5512283 9.230865
v -4.947994 -1.107318E-06 10.91869
v -2.552303 -6.778064E-07 11.84857
v -0.6306763 0.5512285 9.935074
v -0.3844905 -1.099984E-06 11.90885
v 6.103628 -2.781428E-06 9.752548
v 5.636688 0.5512271 7.996384
v 9.439041 -3.595004E-06 6.117874
v 7.984329 0.5512262 4.837143
v 10.33564 -3.838932E-06 1.84243
v 9.059469 0.5512261 0.4474792
v 8.989212 -4.631831E-06 -7.725502
v 7.776051 0.5512299 -7.054665
v 5.774586 0.5512302 -9.528175
v 5.62524 0.5112274 -11.06667
v 0.8573227 0.5512238 -9.806831
v -2.698475 -4.118465E-06 -11.69644
v -2.299716 0.5512291 -10.47908
v -5.54284 0.5512395 -9.108364
vt 0.915875 0.5962303
vt 0.981445 0.6271215
vt 0.8889192 0.528562
vt 0.9582458 0.6312153
vt 0.969056 0.6761592
vt 0.9938849 0.6742573
vt 0.9642316 0.8120821
vt 0.9866906 0.8236499
vt 0.9633954 0.8785442
vt 0.9355089 0.8735341
vt 0.8804215 0.9092298
vt 0.9049416 0.9391763
vt 0.8565731 0.9620585
vt 0.8130672 0.9297284
vt 0.8191523 0.9609568
vt 0.6710116 0.9284809
vt 0.6764135 0.9014362
vt 0.5960824 0.8786648
vt 0.6241848 0.8511227
vt 0.5697935 0.7991109
vt 0.5939662 0.7697765
vt 0.5809612 0.6138579
vt 0.6074288 0.6240095
vt 0.644881 0.5725775
vt 0.6452746 0.5429341
vt 0.7470455 0.5566761
vt 0.817934 0.5130041
vt 0.8117646 0.5370643
vt 0.8818985 0.5562035
vn -0.3313208 0.912955 -0.2382008
vn -0.4067793 0.8992046 -0.1611264
vn -0.2181439 0.9270769 -0.3048633
vn -0.4111668 0.8806773 -0.2352643
vn -0.4316206 0.9020422 -0.004847846
vn -0.4316877 0.9020202 -0.002306017
vn -0.3988809 0.9107391 0.1069966
vn -0.3834228 0.914288 0.1306308
vn -0.2934625 0.9313024 0.2157675
vn -0.2601064 0.9363276 0.2358713
vn -0.1290868 0.9572507 0.2588586
vn -0.1507452 0.95331 0.2616791
vn -0.05124071 0.9675971 0.2472453
vn 0.02326648 0.9663988 0.2559923
vn 0.02487538 0.9662783 0.2562956
vn 0.1441205 0.9598302 0.2407393
vn 0.1745746 0.9582686 0.2263735
vn 0.2676447 0.9524467 0.1456421
vn 0.2806265 0.9516925 0.1246198
vn 0.338563 0.9401084 0.03963932
vn 0.3903534 0.920302 -0.02585339
vn 0.3317918 0.9376784 -0.1033128
vn 0.3366989 0.9361558 -0.1012234
vn 0.1582195 0.9823124 -0.1001441
vn 0.06490255 0.9943671 -0.08379661
vn -0.02602572 0.9777827 -0.2079988
vn -0.05721411 0.9339433 -0.3528123
vn -0.009064055 0.916832 -0.3991704
vn -0.2774507 0.9184424 -0.2819303
g mountain_B_grass_edge_LOD1_0
f 3/3/3 2/2/2 1/1/1
f 1/1/1 2/2/2 4/4/4
f 5/5/5 4/4/4 2/2/2
f 6/6/6 5/5/5 2/2/2
f 7/7/7 5/5/5 6/6/6
f 8/8/8 7/7/7 6/6/6
f 7/7/7 8/8/8 9/9/9
f 10/10/10 7/7/7 9/9/9
f 10/10/10 9/9/9 11/11/11
f 9/9/9 12/12/12 11/11/11
f 13/13/13 11/11/11 12/12/12
f 11/11/11 13/13/13 14/14/14
f 13/13/13 15/15/15 14/14/14
f 15/15/15 16/16/16 14/14/14
f 16/16/16 17/17/17 14/14/14
f 17/17/17 16/16/16 18/18/18
f 19/19/19 17/17/17 18/18/18
f 18/18/18 20/20/20 19/19/19
f 20/20/20 21/21/21 19/19/19
f 20/20/20 22/22/22 21/21/21
f 22/22/22 23/23/23 21/21/21
f 24/24/24 23/23/23 22/22/22
f 25/25/25 24/24/24 22/22/22
f 24/24/24 25/25/25 26/26/26
f 25/25/25 27/27/27 26/26/26
f 27/27/27 28/28/28 26/26/26
f 28/28/28 27/27/27 29/29/29
f 27/27/27 3/3/3 29/29/29
f 1/1/1 29/29/29 3/3/3
